<?xml version="1.0" encoding="iso-8859-1"?>
<!-- Uploaded to: SVG Repo, www.svgrepo.com, Generator: SVG Repo Mixer Tools -->
<svg version="1.1" id="Layer_1" xmlns="http://www.w3.org/2000/svg" xmlns:xlink="http://www.w3.org/1999/xlink" 
	 viewBox="0 0 512 512" xml:space="preserve">
<polygon style="fill:#FFFFFF;" points="392.787,170.262 357.078,501.551 154.921,501.551 119.213,170.262 "/>
<g>
	<polygon style="fill:#662C04;" points="119.213,85.205 154.922,10.449 357.079,10.449 392.787,85.205 	"/>
	<path style="fill:#662C04;" d="M287.77,246.253c-19.995-19.996-50.428-21.979-67.975-4.433c-2.145,2.145-3.994,4.486-5.557,6.974
		c7.963,14.612,21.094,29.231,41.761,29.231c21.926,0,35.025,14.444,42.492,28.002C308.808,288.236,304.924,263.406,287.77,246.253z
		"/>
	<path style="fill:#662C04;" d="M256,278.023c-20.667,0-33.798-14.618-41.761-29.231c-11.23,17.86-7.56,43.451,9.99,61.001
		c19.995,19.996,50.428,21.979,67.975,4.434c2.494-2.494,4.579-5.254,6.288-8.202C291.025,292.467,277.926,278.023,256,278.023z"/>
</g>
<rect x="89.861" y="85.211" style="fill:#88420E;" width="332.278" height="85.107"/>
<path d="M262.227,114.939h-4.678c-5.77,0-10.449,4.678-10.449,10.449s4.679,10.449,10.449,10.449h4.678
	c5.77,0,10.449-4.678,10.449-10.449S267.996,114.939,262.227,114.939z"/>
<path d="M223.745,114.939H122.253c-5.77,0-10.449,4.678-10.449,10.449s4.679,10.449,10.449,10.449h101.492
	c5.77,0,10.449-4.678,10.449-10.449S229.515,114.939,223.745,114.939z"/>
<path d="M422.139,74.758h-22.762L366.508,5.945C364.774,2.312,361.105,0,357.079,0H154.922c-4.026,0-7.694,2.312-9.428,5.945
	l-32.869,68.813H89.861c-5.77,0-10.449,4.678-10.449,10.449v85.109c0,5.771,4.679,10.449,10.449,10.449h19.974l34.696,321.906
	c0.572,5.307,5.051,9.329,10.388,9.329h202.158c5.337,0,9.817-4.023,10.388-9.329l34.697-321.906h19.975
	c5.77,0,10.449-4.678,10.449-10.449V85.207C432.588,79.436,427.909,74.758,422.139,74.758z M161.51,20.898h188.98l25.726,53.86
	H135.783L161.51,20.898z M347.695,491.102H164.304l-33.449-310.337h250.29L347.695,491.102z M411.69,159.867H100.31V95.656h311.38
	V159.867z"/>
<path d="M262.287,336.595c13.874,0,27.269-4.941,37.306-14.979c3.06-3.061,5.731-6.543,7.939-10.35
	c0.003-0.004,0.004-0.008,0.007-0.014c12.963-22.371,7.874-52.136-12.38-72.388c-12.365-12.366-28.926-19.459-45.433-19.459
	c-14.376,0-27.628,5.336-37.319,15.025c-2.646,2.648-5.005,5.605-7.007,8.791c-0.002,0.003-0.005,0.006-0.007,0.01
	c-13.982,22.236-9.166,53.338,11.448,73.951C229.704,330.046,246.314,336.595,262.287,336.595z M231.618,302.405
	c-8.638-8.637-13.27-19.796-13.352-30.385c10.602,10.827,23.383,16.452,37.733,16.452c12.064,0,22.121,5.762,29.97,17.133
	c-0.374,0.422-0.758,0.837-1.155,1.234C271.37,320.283,247.506,318.295,231.618,302.405z M227.185,249.208
	c5.742-5.742,13.747-8.904,22.541-8.904c11.007,0,22.181,4.861,30.656,13.338c8.147,8.146,12.744,18.703,13.251,28.867
	c-10.45-9.835-23.182-14.935-37.633-14.935c-11.338,0-21.114-6.065-29.13-18.047C226.975,249.42,227.078,249.314,227.185,249.208z"
	/>
</svg>